<svg width="795" height="676" viewBox="0 0 795 676" fill="none" xmlns="http://www.w3.org/2000/svg">
<path d="M437.507 52.3354L645.759 62.1484H727.533V614.942L437.507 623.664L411.339 617.123L388.443 614.942V78.5032H399.346L414.61 74.1419L434.236 69.7806L437.507 52.3354Z" fill="#52B755"/>
<path d="M438.598 52.3354L646.849 62.1484H728.623V614.942L438.598 623.664L435.327 69.7806L438.598 52.3354Z" fill="#0D89D7"/>
<path d="M437.507 399.058H728.623V407.781H437.507V399.058Z" fill="#0D7CD7"/>
<path d="M438.598 510.271H730.804V523.355H438.598V510.271Z" fill="#116DB8"/>
<path d="M388.443 505.91H422.243L437.507 510.271V522.264L416.791 512.451H388.443V505.91Z" fill="#4BA24E"/>
<path d="M388.443 394.697L422.243 397.968L437.507 399.058V407.781L421.152 401.239L388.443 397.968V394.697Z" fill="#4BA24E"/>
<path d="M409.159 616.032L437.507 622.574L727.533 614.942L680.649 654.194H338.288L388.443 612.761L409.159 616.032Z" fill="#AC542E"/>
<path d="M478.464 360.854C479.082 360.562 479.32 360.15 479.177 359.618C479.03 359.066 478.689 358.503 478.155 357.928C477.635 357.329 476.958 356.813 476.125 356.382C473.949 355.276 471.364 355.124 468.37 355.926C466.892 356.322 465.579 356.938 464.431 357.773C462.887 357.448 461.51 356.645 460.301 355.364C459.093 354.083 458.256 352.576 457.791 350.843C456.577 346.312 457.532 342.308 460.654 338.832C463.34 335.853 467.066 333.725 471.834 332.448C475.38 331.497 478.467 331.082 481.096 331.201C483.72 331.3 485.959 331.735 487.812 332.505C488.613 333.684 489.201 334.973 489.576 336.372C489.951 337.77 490.104 339.091 490.036 340.334C489.968 341.577 489.672 342.638 489.147 343.518C488.346 343.205 486.999 343.027 485.109 342.985C483.218 342.942 481.554 343.114 480.116 343.499C478.678 343.884 477.736 344.232 477.291 344.541C476.866 344.845 476.703 345.184 476.804 345.558C476.851 345.736 476.926 345.895 477.027 346.037C477.669 345.675 478.532 345.349 479.615 345.058C483.457 344.029 486.832 344.096 489.741 345.259C493.178 346.661 495.477 349.528 496.638 353.862C497.662 357.684 496.966 361.27 494.549 364.621C491.923 368.217 487.783 370.773 482.129 372.288C479.016 373.122 476.254 373.608 473.842 373.748C471.435 373.907 468.993 373.696 466.514 373.114C464.462 371.363 463.14 369.384 462.548 367.178C461.952 364.951 462.217 362.906 463.343 361.042C464.469 359.178 466.136 357.95 468.342 357.359C470.568 356.762 472.502 356.73 474.144 357.261C475.805 357.787 477.245 358.985 478.464 360.854ZM545.303 338.796C545.688 340.234 546.16 341.364 546.718 342.186C547.276 343.007 548.015 343.559 548.935 343.84C548.981 343.933 549.036 344.098 549.099 344.335L549.218 344.778C549.941 347.477 549.718 349.796 548.548 351.735C547.379 353.674 545.543 354.979 543.041 355.649C540.559 356.315 538.377 356.171 536.496 355.218C534.281 354.122 532.738 351.949 531.867 348.699L529.365 339.361C529.012 338.041 528.401 337.497 527.534 337.729C527.2 337.819 526.955 337.969 526.8 338.179L528.512 342.44L530.301 349.118C531.019 351.797 532.006 353.708 533.262 354.849C532.586 356.107 531.615 357.212 530.349 358.163C529.098 359.09 527.744 359.748 526.286 360.139C523.922 360.772 521.937 360.692 520.331 359.898C518.385 358.941 517.014 356.975 516.217 354.001L513.438 343.629C513.084 342.309 512.474 341.765 511.607 341.997C511.272 342.087 511.027 342.237 510.872 342.447L512.584 346.708L514.682 354.538C515.274 356.745 516.026 358.37 516.939 359.413C515.541 361.92 513.099 363.641 509.612 364.575C507.544 365.129 505.66 365.074 503.962 364.41C502.005 363.647 500.755 362.251 500.211 360.221L496.426 346.096C494.826 344.773 493.706 342.919 493.067 340.535C492.423 338.132 492.448 335.898 493.14 333.833L500.262 331.925C501.66 331.55 502.992 331.753 504.257 332.533C503.607 333.573 503.353 334.359 503.495 334.891C503.659 335.501 504.085 335.714 504.775 335.53C505.24 333.8 506.113 332.289 507.392 330.996C508.896 329.516 510.84 328.457 513.224 327.818C515.036 327.333 516.725 327.292 518.29 327.696C519.875 328.095 521.137 328.707 522.076 329.532C522.664 328.023 523.612 326.756 524.921 325.729C526.244 324.678 527.713 323.936 529.328 323.503C532.894 322.548 535.958 322.909 538.519 324.588C541.041 326.277 542.816 329.042 543.846 332.884L545.303 338.796ZM546.884 324.722C546.504 323.303 546.399 322.202 546.569 321.417C547.907 320.341 549.536 319.292 551.458 318.27C552.202 318.916 553.006 319.397 553.872 319.714C554.738 320.031 555.467 320.11 556.058 319.951C556.55 319.819 556.744 319.44 556.64 318.814C554.994 318.579 553.603 317.959 552.468 316.954C551.353 315.944 550.581 314.641 550.154 313.045C549.589 310.938 549.847 308.947 550.929 307.074C552.01 305.2 553.605 303.981 555.713 303.416C557.821 302.851 559.812 303.11 561.685 304.191C563.558 305.273 564.772 306.848 565.327 308.917C565.875 310.965 565.747 312.89 564.941 314.689C571.177 314.792 575.126 317.946 576.788 324.152L578.34 329.944C578.72 331.362 579.184 332.462 579.731 333.245C580.279 334.027 581.013 334.559 581.933 334.84C581.979 334.933 582.039 335.118 582.113 335.394L582.255 335.926C583.005 338.723 582.741 341.127 581.464 343.137C580.336 344.917 578.669 346.103 576.463 346.694C574.965 347.095 573.501 347.108 572.07 346.731C570.639 346.354 569.478 345.568 568.587 344.37C567.917 344.55 567.669 344.965 567.844 345.615C567.991 346.166 568.502 346.695 569.377 347.199C568.328 348.409 566.514 349.36 563.933 350.051C560.289 351.028 557.109 350.824 554.395 349.44C551.694 348.031 549.869 345.554 548.919 342.008C547.964 338.442 548.377 335.375 550.159 332.807C551.798 330.489 554.291 328.881 557.64 327.984C558.783 327.678 559.907 327.461 561.013 327.333C561.759 327.281 562.165 327.257 562.229 327.261C562.235 327.048 562.22 326.873 562.183 326.735C562.046 326.223 561.52 325.994 560.606 326.049C559.691 326.104 558.535 326.319 557.136 326.694C554.161 327.491 551.781 328.773 549.995 330.539C548.592 329.163 547.555 327.223 546.884 324.722ZM563.392 335.501C562.564 335.723 562.251 336.208 562.451 336.956C562.641 337.666 563.219 337.891 564.184 337.632C564.854 337.453 565.304 337.163 565.535 336.763C565.761 336.344 565.765 335.731 565.549 334.923L563.392 335.501ZM596.381 318.078C596.191 317.369 595.83 317.086 595.298 317.228C594.806 317.36 594.639 317.722 594.797 318.313L595.612 321.356C595.807 321.452 596.062 321.458 596.377 321.373C596.692 321.289 596.877 321.113 596.932 320.844C596.987 320.576 596.93 320.127 596.761 319.497L596.381 318.078ZM600.681 329.753C599.42 330.091 598.323 330.29 597.389 330.35C597.377 330.543 597.393 330.719 597.435 330.876C597.551 331.31 597.936 331.524 598.588 331.517C599.256 331.486 600.072 331.342 601.037 331.083C604.111 330.26 606.609 329.104 608.534 327.618C610.809 327.599 612.786 328.357 614.464 329.892C615.836 331.151 616.796 332.804 617.345 334.853C618.322 338.498 617.535 341.749 614.986 344.607C612.437 347.464 608.719 349.548 603.834 350.857C598.968 352.161 594.973 352.302 591.849 351.281C588.964 350.365 587.184 348.646 586.508 346.125C586.25 345.159 586.228 344.173 586.444 343.165C586.654 342.137 587.01 341.377 587.511 340.883C588.718 341.447 590.345 341.729 592.393 341.729C594.461 341.724 596.51 341.449 598.539 340.906C600.568 340.362 601.847 339.935 602.376 339.624C602.925 339.308 603.146 338.953 603.041 338.559C602.988 338.362 602.876 338.181 602.705 338.016C601.778 338.496 600.576 338.935 599.098 339.33C595.296 340.349 592.167 340.607 589.709 340.104C586.721 339.511 584.876 337.905 584.174 335.285C583.899 334.26 583.853 333.259 584.034 332.282C584.21 331.284 584.644 330.461 585.336 329.811C584.073 329.432 582.875 328.665 581.743 327.512C580.63 326.353 579.807 324.779 579.274 322.789C578.26 319.007 578.879 315.642 581.13 312.695C583.381 309.748 586.772 307.668 591.303 306.454C593.489 305.868 595.695 305.667 597.919 305.853L597.365 303.784C598.406 303.02 599.882 302.381 601.793 301.869C603.723 301.352 605.278 301.284 606.457 301.665C607.89 302.125 608.872 303.351 609.406 305.34C609.701 306.443 609.82 307.362 609.764 308.095C609.726 308.823 609.589 309.609 609.351 310.454C610.211 311.617 610.9 313.164 611.417 315.095C612.352 318.581 611.836 321.623 609.872 324.219C607.921 326.789 604.858 328.634 600.681 329.753ZM629.414 314.295L630.8 319.466C630.975 319.567 631.22 319.575 631.535 319.491C631.85 319.406 632.048 319.237 632.128 318.983C632.207 318.73 632.176 318.337 632.034 317.805L630.901 313.579C630.395 311.688 629.981 310.458 629.659 309.89C629.333 309.302 628.953 309.066 628.519 309.182C628.244 309.256 628.034 309.418 627.889 309.667C628.589 311.57 629.098 313.113 629.414 314.295ZM621.87 330.347C617.805 328.1 615.06 324.317 613.635 318.998C612.205 313.659 612.595 309.047 614.805 305.16C617.03 301.249 620.614 298.631 625.559 297.306C630.504 295.981 634.933 296.515 638.847 298.908C642.741 301.307 645.38 305.086 646.763 310.248C648.141 315.39 647.768 319.871 645.646 323.691C643.543 327.506 639.98 330.087 634.957 331.433C629.933 332.779 625.571 332.417 621.87 330.347ZM663.789 300.27C663.539 300.126 663.277 300.09 663.001 300.164C662.567 300.28 662.356 300.675 662.368 301.347C662.374 302 662.63 303.272 663.137 305.164L663.945 308.178C664.087 308.71 664.256 309.066 664.452 309.245C664.648 309.425 664.904 309.473 665.219 309.388C665.534 309.304 665.742 309.174 665.843 308.999L664.782 305.04C664.265 303.109 663.934 301.519 663.789 300.27ZM656.982 283.376C657.699 281.875 658.606 280.65 659.703 279.701C660.795 278.733 662.316 277.987 664.266 277.465C666.63 276.831 668.728 276.977 670.559 277.901C672.456 278.913 673.727 280.62 674.371 283.024L679.597 302.527C680.383 305.462 681.604 307.183 683.26 307.69C683.306 307.783 683.366 307.967 683.44 308.243L683.583 308.775C684.332 311.572 684.068 313.976 682.791 315.987C681.664 317.767 679.997 318.952 677.79 319.544C676.253 319.955 674.837 319.987 673.54 319.637C672.019 319.242 670.819 318.466 669.938 317.308C669.269 317.488 669.021 317.903 669.195 318.553C669.274 318.848 669.475 319.164 669.797 319.5C670.134 319.811 670.539 320.061 671.012 320.251C670.034 321.252 668.62 322.001 666.768 322.497C664.266 323.167 661.769 323.224 659.276 322.668C656.797 322.086 654.606 320.804 652.703 318.823C650.513 316.559 648.911 313.536 647.898 309.754C646.546 304.711 646.894 300.373 648.94 296.742C651.006 293.106 654.236 290.699 658.629 289.522C661.229 288.825 663.627 288.711 665.822 289.179C665.98 288.904 666.028 288.648 665.964 288.412C665.806 287.821 664.972 287.506 663.463 287.467C661.953 287.428 660.489 287.599 659.071 287.979C658.532 285.969 657.836 284.435 656.982 283.376ZM684.611 297.129L686.443 296.638C687.428 296.374 687.834 295.917 687.66 295.267C687.638 295.188 687.587 295.076 687.505 294.929L680.886 296.702C680.083 295.439 679.455 293.961 679.001 292.266C678.542 290.553 678.298 289.129 678.269 287.997C679.202 286.987 680.458 285.489 682.037 283.503C682.23 282.016 682.379 279.696 682.484 276.542C682.497 276.117 682.532 275.696 682.589 275.279C684.02 274.473 685.72 273.807 687.69 273.279C689.66 272.751 691.656 272.438 693.678 272.34L695.618 279.579L704.483 277.204C706.09 278.631 707.208 280.517 707.836 282.862C708.121 283.925 708.266 285.058 708.272 286.26C708.277 287.462 708.109 288.531 707.769 289.467L699.79 291.605L700.986 296.067C701.662 298.589 703.054 299.567 705.161 299.002L706.432 298.662C707.247 300.048 707.802 301.293 708.098 302.396C708.826 305.115 708.529 307.433 707.206 309.35C705.897 311.242 703.617 312.623 700.366 313.494C697.136 314.36 694.315 314.155 691.904 312.88C689.507 311.579 687.839 309.176 686.9 305.669L684.611 297.129ZM487.586 396.317L488.647 400.277C488.822 400.378 489.067 400.386 489.382 400.302C489.697 400.217 489.895 400.048 489.974 399.795C490.054 399.541 490.023 399.148 489.88 398.616L489.073 395.602C488.566 393.711 488.152 392.481 487.831 391.913C487.504 391.325 487.124 391.089 486.691 391.205C486.415 391.279 486.205 391.44 486.061 391.69C486.761 393.593 487.269 395.135 487.586 396.317ZM474.747 386.107C474.905 386.698 475.329 386.901 476.018 386.717C476.704 384.548 477.726 382.807 479.084 381.493C480.437 380.159 482.237 379.191 484.482 378.589C486.728 377.988 488.872 377.793 490.914 378.006C493.725 378.33 496.167 379.407 498.241 381.237C500.847 383.558 502.763 387.004 503.988 391.574C505.365 396.716 505.058 401.085 503.065 404.68C501.087 408.251 497.665 410.688 492.799 411.992C490.081 412.72 487.873 412.953 486.177 412.689C486.06 412.805 486.036 412.991 486.104 413.247C486.263 413.838 486.829 414.14 487.804 414.154C488.799 414.162 490.435 413.924 492.712 413.44L494.818 421.301C493.032 422.75 490.927 423.8 488.504 424.449C485.648 425.215 483.351 425.271 481.613 424.617C479.657 423.938 478.368 422.436 477.745 420.111L471.371 396.323C469.771 394.999 468.646 393.126 467.997 390.703C467.733 389.718 467.603 388.602 467.607 387.355C467.61 386.108 467.767 385 468.077 384.03L472.274 382.906C473.988 382.447 475.361 382.332 476.394 382.562C475.1 384.197 474.551 385.378 474.747 386.107ZM521.02 386.82L522.406 391.992C522.581 392.093 522.826 392.101 523.141 392.016C523.456 391.932 523.654 391.763 523.733 391.509C523.813 391.256 523.782 390.863 523.639 390.331L522.507 386.105C522 384.214 521.586 382.984 521.265 382.416C520.939 381.827 520.559 381.591 520.125 381.708C519.85 381.781 519.64 381.943 519.495 382.193C520.195 384.096 520.703 385.638 521.02 386.82ZM513.476 402.872C509.411 400.625 506.666 396.842 505.241 391.523C503.81 386.185 504.2 381.572 506.411 377.686C508.636 373.775 512.22 371.157 517.165 369.832C522.11 368.507 526.539 369.041 530.453 371.434C534.347 373.832 536.986 377.612 538.369 382.774C539.747 387.915 539.374 392.396 537.252 396.217C535.149 400.032 531.586 402.612 526.562 403.958C521.539 405.304 517.177 404.942 513.476 402.872ZM553.767 370.856C553.297 371.151 553.123 371.525 553.244 371.978L553.284 372.126C553.31 372.225 553.336 372.281 553.361 372.295C553.572 372.218 553.855 372.131 554.21 372.036L554.919 371.846C557.165 371.244 559.355 371.027 561.49 371.194C563.64 371.336 565.536 371.989 567.178 373.154C569.011 374.479 570.273 376.431 570.965 379.012C572.042 383.031 571.466 386.437 569.237 389.23C567.008 392.023 563.569 394.042 558.92 395.288C554.271 396.534 550.42 396.742 547.369 395.913C544.337 395.078 542.422 393.174 541.625 390.199C541.33 389.096 541.297 388.028 541.527 386.995C541.752 385.942 542.109 385.15 542.6 384.617C543.926 385.233 545.704 385.601 547.932 385.722C550.175 385.818 552.449 385.557 554.753 384.939C555.679 384.691 556.074 384.311 555.936 383.799C555.873 383.563 555.791 383.373 555.689 383.232C555.557 383.288 555.392 383.343 555.195 383.396L554.87 383.483C550.693 384.602 547.133 384.669 544.187 383.685C540.849 382.573 538.723 380.314 537.81 376.906C536.897 373.497 537.428 370.399 539.405 367.61C541.599 364.531 545.159 362.331 550.084 361.011C552.507 360.362 554.831 360.014 557.057 359.967C559.302 359.914 561.287 360.111 563.011 360.557C563.602 361.264 564.108 362.406 564.53 363.982C565.174 366.385 565.008 368.404 564.031 370.038C562.879 369.756 561.526 369.632 559.973 369.669C558.435 369.68 557.084 369.841 555.922 370.152C554.76 370.464 554.041 370.698 553.767 370.856ZM593.139 386.119C587.682 387.581 582.971 387.218 579.006 385.029C574.957 382.841 572.223 379.097 570.803 373.798C569.378 368.479 569.913 363.817 572.408 359.812C574.705 356.093 578.208 353.602 582.916 352.341C587.625 351.079 591.746 351.369 595.279 353.209C598.827 355.024 601.108 357.823 602.121 361.605C603.024 364.974 602.533 367.83 600.648 370.172C598.914 372.368 596.175 373.967 592.432 374.97C589.635 375.72 587.115 375.772 584.873 375.127C584.747 375.287 584.726 375.525 584.811 375.84C584.969 376.431 585.892 376.765 587.581 376.84C589.279 376.955 591.114 376.749 593.084 376.221C595.074 375.688 596.81 374.958 598.294 374.033C599.791 373.083 600.94 372.131 601.741 371.177C602.324 371.464 602.905 372.132 603.481 373.181C604.072 374.205 604.492 375.18 604.74 376.106C604.983 377.012 605.111 377.844 605.123 378.601C603.935 380.313 602.607 381.661 601.14 382.645C599.076 384.085 596.409 385.243 593.139 386.119ZM587.394 366.217C588.379 365.953 588.772 365.446 588.571 364.698C588.381 363.989 587.764 363.774 586.72 364.054C585.676 364.333 585.225 365.056 585.369 366.221C586.01 366.408 586.685 366.407 587.394 366.217ZM636.58 357.82C636.96 359.238 637.423 360.339 637.971 361.121C638.518 361.903 639.252 362.435 640.172 362.717C640.218 362.81 640.278 362.994 640.352 363.27L640.495 363.802C641.223 366.521 641.002 368.85 639.833 370.789C638.678 372.703 636.859 373.993 634.377 374.658C631.914 375.318 629.727 375.154 627.816 374.167C625.596 373.052 624.05 370.869 623.179 367.618C622.81 366.239 622.544 365.012 622.382 363.936C622.235 362.835 622.121 362.053 622.039 361.589C621.976 361.121 621.922 360.681 621.876 360.271C621.829 359.861 621.703 359.272 621.497 358.504C621.291 357.736 621.035 357.213 620.729 356.936C620.442 356.654 620.111 356.563 619.737 356.664C619.382 356.759 619.088 356.922 618.855 357.153L620.53 361.867C620.708 363.952 621.096 366.107 621.692 368.333C622.289 370.56 623.335 372.454 624.83 374.017C623.433 376.524 620.991 378.245 617.504 379.179C615.514 379.712 613.65 379.652 611.913 378.998C609.902 378.27 608.635 376.931 608.112 374.981L604.28 360.679C602.68 359.355 601.56 357.501 600.921 355.118C600.277 352.714 600.302 350.48 600.994 348.415L606.254 347.006C607.653 346.631 608.985 346.834 610.249 347.614C609.599 348.654 609.345 349.44 609.488 349.972C609.651 350.582 610.078 350.795 610.767 350.611C611.233 348.881 612.22 347.286 613.729 345.826C615.258 344.361 617.155 343.325 619.421 342.718C622.829 341.805 625.821 341.9 628.397 343.005C631.641 344.395 633.857 347.306 635.045 351.738L636.58 357.82ZM642.319 356.662C643.544 354.539 645.32 353.166 647.644 352.543C649.969 351.92 652.213 352.216 654.375 353.432C656.509 354.697 657.89 356.502 658.518 358.846C659.141 361.171 658.839 363.395 657.614 365.518C656.363 367.626 654.565 368.995 652.221 369.623C649.877 370.251 647.645 369.962 645.528 368.756C643.424 367.525 642.061 365.747 641.438 363.423C640.81 361.078 641.103 358.825 642.319 356.662ZM689.297 343.694C689.677 345.113 690.141 346.213 690.688 346.995C691.236 347.778 691.97 348.31 692.89 348.591C692.936 348.684 692.996 348.869 693.07 349.145L693.212 349.676C693.94 352.395 693.72 354.724 692.55 356.663C691.395 358.577 689.577 359.867 687.094 360.532C684.632 361.192 682.445 361.028 680.533 360.041C678.313 358.926 676.768 356.743 675.897 353.493C675.527 352.114 675.262 350.886 675.1 349.81C674.953 348.71 674.838 347.927 674.756 347.464C674.694 346.995 674.64 346.556 674.593 346.146C674.547 345.736 674.42 345.147 674.215 344.378C674.009 343.61 673.753 343.088 673.446 342.811C673.159 342.529 672.829 342.438 672.455 342.538C672.1 342.633 671.806 342.796 671.572 343.028L673.247 347.742C673.426 349.826 673.813 351.982 674.41 354.208C675.006 356.434 676.052 358.328 677.548 359.891C676.15 362.398 673.708 364.119 670.221 365.053C668.231 365.586 666.368 365.526 664.63 364.873C662.619 364.145 661.353 362.806 660.83 360.855L656.998 346.553C655.397 345.229 654.278 343.376 653.639 340.992C652.995 338.588 653.019 336.354 653.712 334.29L658.972 332.88C660.37 332.505 661.702 332.708 662.967 333.488C662.317 334.528 662.063 335.314 662.205 335.846C662.369 336.457 662.795 336.67 663.485 336.485C663.95 334.756 664.938 333.161 666.447 331.701C667.976 330.235 669.873 329.199 672.138 328.592C675.546 327.679 678.539 327.775 681.115 328.879C684.359 330.269 686.575 333.18 687.763 337.613L689.297 343.694ZM707.245 336.921L708.631 342.093C708.806 342.194 709.051 342.202 709.366 342.117C709.681 342.033 709.879 341.864 709.959 341.61C710.039 341.357 710.007 340.964 709.865 340.432L708.732 336.206C708.226 334.315 707.812 333.085 707.49 332.517C707.164 331.929 706.784 331.693 706.351 331.809C706.075 331.883 705.865 332.044 705.721 332.294C706.42 334.197 706.929 335.739 707.245 336.921ZM699.701 352.973C695.637 350.727 692.891 346.944 691.466 341.625C690.036 336.286 690.426 331.673 692.636 327.787C694.861 323.876 698.446 321.258 703.39 319.933C708.335 318.608 712.764 319.142 716.678 321.535C720.573 323.933 723.211 327.713 724.594 332.875C725.972 338.016 725.6 342.497 723.477 346.318C721.374 350.133 717.811 352.713 712.788 354.059C707.764 355.405 703.402 355.043 699.701 352.973Z" fill="#D7D7D7"/>
</svg>
